<?xml version="1.0" standalone="no"?><!-- Generator: Gravit.io --><svg xmlns="http://www.w3.org/2000/svg" xmlns:xlink="http://www.w3.org/1999/xlink" style="isolation:isolate" viewBox="205 58 171 163" width="171" height="163"><g style="isolation:isolate"><g><ellipse vector-effect="non-scaling-stroke" cx="290.5" cy="139.49999999999994" rx="85.5" ry="81.49999999999997" fill="#ffc300"/><ellipse vector-effect="non-scaling-stroke" cx="290.25" cy="139.75" rx="81.25" ry="76.25" fill="rgb(255,255,255)"/></g><g><ellipse vector-effect="non-scaling-stroke" cx="292.7460972400635" cy="141.8605281209133" rx="8.246320912123792" ry="7.8605281209133295" fill="#ffc300"/><ellipse vector-effect="non-scaling-stroke" cx="293.12641002003534" cy="142.16250203252994" rx="6.741509825953415" ry="6.326647682817821" fill="rgb(255,255,255)"/></g><g><path d=" M 264.001 185.311 C 264.095 178.137 270.667 172.397 278.669 172.502 C 286.672 172.606 293.092 178.516 292.999 185.69 C 292.905 192.864 286.332 198.604 278.33 198.499 C 270.328 198.395 263.907 192.486 264.001 185.311 Z " fill="#ffc300"/><path d=" M 268.532 185.047 C 268.268 178.856 273.41 173.602 280.007 173.321 C 286.603 173.04 292.173 177.838 292.437 184.028 C 292.7 190.219 287.559 195.473 280.962 195.754 C 274.366 196.035 268.796 191.237 268.532 185.047 Z " fill="rgb(255,255,255)"/></g><g><path d=" M 319.001 132.521 C 319.104 123.829 326.357 116.875 335.187 117.002 C 344.017 117.128 351.102 124.288 350.999 132.98 C 350.896 141.671 343.643 148.625 334.813 148.499 C 325.983 148.372 318.898 141.213 319.001 132.521 Z " fill="#ffc300"/><path d=" M 320.001 133.2 C 319.71 125.7 325.384 119.334 332.663 118.994 C 339.942 118.653 346.088 124.466 346.379 131.967 C 346.67 139.467 340.996 145.832 333.717 146.173 C 326.438 146.513 320.292 140.7 320.001 133.2 Z " fill="rgb(255,255,255)"/></g><g><ellipse vector-effect="non-scaling-stroke" cx="292.1319018404908" cy="98.45321637426892" rx="8.868098159509145" ry="8.453216374268962" fill="#ffc300"/><ellipse vector-effect="non-scaling-stroke" cx="291.8159509202451" cy="98.73638508730532" rx="6.184049079754573" ry="5.803492213308118" fill="rgb(255,255,255)"/></g><g><ellipse vector-effect="non-scaling-stroke" cx="227.13190184049085" cy="135.45321637426892" rx="8.868098159509145" ry="8.453216374268955" fill="#ffc300"/><ellipse vector-effect="non-scaling-stroke" cx="225.81595092024497" cy="135.73638508730522" rx="6.184049079754544" ry="5.803492213308118" fill="rgb(255,255,255)"/></g><g><ellipse vector-effect="non-scaling-stroke" cx="250.5" cy="94.28947368421049" rx="4.5" ry="4.28947368421052" fill="#ffc300"/><ellipse vector-effect="non-scaling-stroke" cx="250.33967485299178" cy="94.43316393050048" rx="3.13801452784503" ry="2.9449059415160974" fill="rgb(255,255,255)"/></g></g></svg>